<?xml version="1.0" encoding="UTF-8" standalone="no"?>
<svg width="264px" height="66px" viewBox="0 0 264 66" version="1.1" xmlns="http://www.w3.org/2000/svg" xmlns:xlink="http://www.w3.org/1999/xlink" xmlns:sketch="http://www.bohemiancoding.com/sketch/ns">
    <!-- Generator: Sketch 3.4.2 (15857) - http://www.bohemiancoding.com/sketch -->
    <title>LOGO</title>
    <desc>Created with Sketch.</desc>
    <defs>
        <filter x="-50%" y="-50%" width="200%" height="200%" filterUnits="objectBoundingBox" id="filter-1">
            <feOffset dx="0" dy="2" in="SourceAlpha" result="shadowOffsetOuter1"></feOffset>
            <feGaussianBlur stdDeviation="2" in="shadowOffsetOuter1" result="shadowBlurOuter1"></feGaussianBlur>
            <feColorMatrix values="0 0 0 0 0   0 0 0 0 0   0 0 0 0 0  0 0 0 0.35 0" in="shadowBlurOuter1" type="matrix" result="shadowMatrixOuter1"></feColorMatrix>
            <feMerge>
                <feMergeNode in="shadowMatrixOuter1"></feMergeNode>
                <feMergeNode in="SourceGraphic"></feMergeNode>
            </feMerge>
        </filter>
    </defs>
    <g id="Welcome" stroke="none" stroke-width="1" fill="none" fill-rule="evenodd" sketch:type="MSPage">
        <g id="Desktop-HD" sketch:type="MSArtboardGroup" transform="translate(-588.000000, -143.000000)" filter="url(#filter-1)" fill="#FFFFFF">
            <path d="M664.699312,173.545686 C664.699312,171.005761 663.317615,169.010105 661.154958,169.010105 C658.331489,169.010105 656.108759,171.912877 656.108759,175.23897 C656.108759,177.781415 657.430382,179.77707 659.653113,179.77707 C662.416508,179.77707 664.699312,176.871779 664.699312,173.545686 M665.239976,161.571753 L665.660493,158.427083 L680.200856,158.427083 L677.317314,179.051377 C677.014442,181.407359 678.458716,181.83068 680.681447,181.286411 L679.419897,190.118194 C677.434958,190.783413 674.010751,191.267208 671.009564,191.267208 C666.5616,191.267208 663.738131,189.211078 662.776951,186.247832 C660.253851,189.269033 657.069939,191.267208 652.504331,191.267208 C645.773562,191.267208 641.868765,184.97535 641.868765,177.113676 C641.868765,166.288757 648.899902,157.640916 657.670677,157.640916 C661.154958,157.640916 663.497836,159.152776 665.239976,161.571753 M640.965154,181.287167 L639.703605,190.11895 C637.721169,190.784169 635.077922,191.267964 632.074232,191.267964 C626.126925,191.267964 620.419914,188.544096 621.921759,177.840125 L624.62508,158.425319 C624.862873,156.611087 624.081913,154.857329 621.739035,154.857329 C620.477485,154.857329 618.254754,155.159701 617.533869,158.425319 L622.399847,158.425319 L620.898002,169.010861 L616.092098,169.010861 L613.208555,189.572161 C611.70671,200.278651 605.158666,203 599.211359,203 C596.207669,203 593.802214,202.516205 592,201.850986 L593.201476,193.019202 C593.621993,193.082197 594.102583,193.140151 594.5231,193.140151 C596.327817,193.140151 598.190105,192.898254 598.670695,189.572161 L601.554238,169.010861 L598.307749,169.010861 L599.812097,158.425319 L603.056083,158.425319 C604.978444,147.116604 614.049588,145 622.940511,145 C631.41342,145 640.664785,147.479451 639.042793,159.090538 L636.459619,177.840125 C635.979029,181.166218 637.721169,181.408115 639.523383,181.408115 C639.9439,181.408115 640.544638,181.347641 640.965154,181.287167 M808.040659,178.806708 C808.040659,186.79185 801.492615,191.266956 791.938377,191.266956 C786.471661,191.266956 782.023697,189.81557 778.421772,187.575497 L781.004946,178.383387 C783.407898,180.321088 787.372768,181.651525 790.496606,181.651525 C792.418968,181.651525 793.440222,181.16773 793.440222,180.502511 C793.440222,178.262438 781.845979,180.62346 781.845979,170.098393 C781.845979,162.055296 788.634318,157.640664 798.186053,157.640664 C802.811736,157.640664 806.47874,158.668729 809.7828,160.241064 L807.2597,169.009853 C805.277264,168.042263 802.093353,167.074672 799.027086,167.074672 C798.24863,167.074672 796.203617,167.135146 796.203617,168.102737 C796.203617,170.521713 808.040659,168.102737 808.040659,178.806708 M846.618303,180.984543 L845.35425,190.118698 C843.371814,190.783917 841.451956,191.267712 838.445762,191.267712 C833.279416,191.267712 829.434692,188.485889 825.650043,178.263194 L823.967976,190.481545 L809.367539,190.481545 L815.615215,145.785915 L830.215652,145.785915 L826.971666,168.768711 C829.735061,167.075428 832.678678,164.535503 833.94273,158.425067 L848,158.425067 C847.637054,164.837875 844.575793,169.373456 838.385689,173.183343 C839.82746,176.811808 841.509526,181.77071 846.618303,180.984543 M767.983949,168.345139 C767.983949,167.196125 767.082842,166.591381 765.94144,166.591381 C763.055394,166.591381 761.556052,168.889408 760.952811,171.187436 C762.997823,171.429334 767.983949,171.489808 767.983949,168.345139 M760.594871,178.988635 C761.493475,180.681918 763.77628,181.228708 766.42203,181.228708 C769.603439,181.228708 772.609632,180.742393 775.012584,179.956226 L775.493174,189.21133 C772.129041,190.29735 767.68358,191.26746 763.298193,191.26746 C753.443586,191.26746 746.895542,186.913303 746.895542,176.811556 C746.895542,166.107585 755.2458,157.638648 766.42203,157.638648 C774.051403,157.638648 779.337898,161.753428 779.337898,168.466087 C779.337898,178.444365 768.584687,179.835277 760.594871,178.988635 M729.968496,173.545686 C729.968496,171.005761 728.586799,169.010105 726.424142,169.010105 C723.600673,169.010105 721.377943,171.912877 721.377943,175.23897 C721.377943,177.781415 722.699566,179.77707 724.922297,179.77707 C727.685692,179.77707 729.968496,176.871779 729.968496,173.545686 M730.509161,161.571753 L732.671818,145.785411 L747.212181,145.785411 L742.586498,179.051377 C742.286129,181.407359 743.7279,181.83068 745.950631,181.286411 L744.689081,190.118194 C742.706645,190.783413 739.282439,191.267208 736.278749,191.267208 C731.830784,191.267208 729.007316,189.211078 728.046135,186.247832 C725.523035,189.211078 722.459271,191.267208 717.773515,191.267208 C711.042746,191.267208 707.137949,184.97535 707.137949,177.113676 C707.137949,166.046859 714.169087,157.640916 722.939862,157.640916 C726.424142,157.640916 728.76702,159.152776 730.509161,161.571753 M684.479362,158.426075 L687.6032,158.426075 L688.624455,150.987723 L703.162315,150.987723 L702.143563,158.426075 L707.427555,158.426075 L705.928213,169.011617 L700.641718,169.011617 L699.440242,177.535989 C699.079799,180.078434 700.759363,180.98555 702.56408,180.98555 C703.765556,180.98555 704.486441,180.801607 705.147253,180.683178 L703.943274,189.394013 C701.540322,190.419559 697.755672,191.26872 693.971023,191.26872 C687.543126,191.26872 683.277886,188.78675 684.359215,181.287922 L686.101355,169.011617 L682.977517,169.011617 L684.479362,158.426075 Z" id="LOGO" sketch:type="MSShapeGroup"></path>
        </g>
    </g>
</svg>