<?xml version="1.0" encoding="UTF-8" standalone="no"?>
<svg width="24px" height="19px" viewBox="0 0 24 19" version="1.1" xmlns="http://www.w3.org/2000/svg" xmlns:xlink="http://www.w3.org/1999/xlink" xmlns:sketch="http://www.bohemiancoding.com/sketch/ns">
    <!-- Generator: Sketch 3.4.2 (15857) - http://www.bohemiancoding.com/sketch -->
    <title>Imported Layers</title>
    <desc>Created with Sketch.</desc>
    <defs></defs>
    <g id="Welcome" stroke="none" stroke-width="1" fill="none" fill-rule="evenodd" sketch:type="MSPage">
        <g id="Desktop-HD" sketch:type="MSArtboardGroup" transform="translate(-685.000000, -631.000000)" fill="#444444">
            <g id="Group" sketch:type="MSLayerGroup" transform="translate(247.000000, 616.000000)">
                <g id="Search-Field-Copy" transform="translate(421.000000, 0.000000)" sketch:type="MSShapeGroup">
                    <g id="Imported-Layers" transform="translate(17.000000, 15.000000)">
                        <path d="M19.3548387,18.6833333 L4.49032258,18.6833333 C3.48387097,18.6833333 2.63225806,17.8125 2.63225806,16.7833333 L2.63225806,10.45 C2.63225806,10.0541667 2.4,9.81666667 2.01290323,9.81666667 L0.774193548,9.81666667 C0.541935484,9.81666667 0.309677419,9.65833333 0.15483871,9.42083333 C0,9.18333333 0.15483871,8.94583333 0.387096774,8.62916667 L10.7612903,0.395833333 C11.3806452,-0.0791666667 12.3870968,-0.0791666667 13.0064516,0.395833333 L23.3806452,8.62916667 C23.6129032,8.7875 23.6129032,9.10416667 23.6129032,9.42083333 C23.4580645,9.65833333 23.2258065,9.81666667 22.9935484,9.81666667 L21.7548387,9.81666667 C21.3677419,9.81666667 21.1354839,10.0541667 21.1354839,10.45 L21.1354839,16.7833333 C21.2129032,17.8125 20.283871,18.6833333 19.3548387,18.6833333 L19.3548387,18.6833333 Z M2.47741935,8.55 C3.2516129,8.7875 3.87096774,9.57916667 3.87096774,10.2916667 L3.87096774,16.625 C3.87096774,17.0208333 4.10322581,17.2583333 4.49032258,17.2583333 L19.3548387,17.2583333 C19.7419355,17.2583333 19.9741935,17.0208333 19.9741935,16.625 L19.9741935,10.2916667 C19.9741935,9.42083333 20.5935484,8.62916667 21.3677419,8.55 L12.3096774,1.34583333 C12.0774194,1.1875 11.8451613,1.1875 11.5354839,1.34583333 L2.47741935,8.55 L2.47741935,8.55 Z" id="Fill-1"></path>
                        <path d="M16.2580645,18.05 L16.2580645,12.9833333 C16.2580645,11.9541667 15.4064516,11.0833333 14.4,11.0833333 L9.44516129,11.0833333 C8.43870968,11.0833333 7.58709677,11.9541667 7.58709677,12.9833333 L7.58709677,18.05 L6.3483871,18.05 L6.3483871,12.9833333 C6.3483871,11.2416667 7.74193548,9.81666667 9.44516129,9.81666667 L14.4,9.81666667 C16.1032258,9.81666667 17.4967742,11.2416667 17.4967742,12.9833333 L17.4967742,18.05 L16.2580645,18.05" id="Fill-2"></path>
                        <path d="M6.96774194,12.35 L16.8774194,12.35 L16.8774194,13.6166667 L6.96774194,13.6166667 L6.96774194,12.35 Z" id="Fill-3"></path>
                        <path d="M6.96774194,14.8833333 L16.8774194,14.8833333 L16.8774194,16.15 L6.96774194,16.15 L6.96774194,14.8833333 Z" id="Fill-4"></path>
                    </g>
                </g>
            </g>
        </g>
    </g>
</svg>