<?xml version="1.0" encoding="UTF-8" standalone="no"?>
<svg width="17px" height="24px" viewBox="0 0 17 24" version="1.1" xmlns="http://www.w3.org/2000/svg" xmlns:xlink="http://www.w3.org/1999/xlink" xmlns:sketch="http://www.bohemiancoding.com/sketch/ns">
    <!-- Generator: Sketch 3.4.2 (15857) - http://www.bohemiancoding.com/sketch -->
    <title>Imported Layers</title>
    <desc>Created with Sketch.</desc>
    <defs></defs>
    <g id="Welcome" stroke="none" stroke-width="1" fill="none" fill-rule="evenodd" sketch:type="MSPage">
        <g id="Desktop-HD" sketch:type="MSArtboardGroup" transform="translate(-268.000000, -628.000000)" fill="#444444">
            <g id="Group" sketch:type="MSLayerGroup" transform="translate(247.000000, 616.000000)">
                <g id="Search-Field" sketch:type="MSShapeGroup">
                    <g id="Imported-Layers" transform="translate(21.000000, 12.000000)">
                        <path d="M8.33809524,23.44 C7.69047619,23.44 7.04285714,23.04 6.63809524,22.4 L1.21428571,13.2 C-1.13333333,9.2 0.080952381,4 3.96666667,1.68 C5.26190476,0.88 6.8,0.4 8.33809524,0.4 C11.3333333,0.4 14.1666667,1.92 15.6238095,4.64 C17.0809524,7.2 17.1619048,10.24 15.6238095,12.8 C15.6238095,12.8 15.6238095,12.8 15.6238095,12.96 L10.0380952,22.56 C9.63333333,23.04 8.98571429,23.44 8.33809524,23.44 L8.33809524,23.44 Z M8.33809524,1.68 C7.04285714,1.68 5.74761905,2.08 4.61428571,2.72 C1.37619048,4.64 0.323809524,9.12 2.42857143,12.48 L7.85238095,21.84 C8.01428571,22.24 8.25714286,22.24 8.33809524,22.24 C8.41904762,22.24 8.74285714,22.24 8.82380952,21.84 L14.4095238,12.4 C14.4095238,12.4 14.4095238,12.4 14.4095238,12.24 C15.7047619,10.08 15.7047619,7.36 14.4095238,5.2 C13.2761905,3.04 10.9285714,1.68 8.33809524,1.68 L8.33809524,1.68 Z" id="Fill-1"></path>
                        <path d="M8.33809524,11.92 C6.55714286,11.92 5.1,10.48 5.1,8.72 C5.1,6.96 6.55714286,5.52 8.33809524,5.52 C10.1190476,5.52 11.5761905,6.96 11.5761905,8.72 C11.5761905,10.48 10.1190476,11.92 8.33809524,11.92 L8.33809524,11.92 Z M8.33809524,6.8 C7.28571429,6.8 6.3952381,7.68 6.3952381,8.72 C6.3952381,9.76 7.28571429,10.64 8.33809524,10.64 C9.39047619,10.64 10.2809524,9.76 10.2809524,8.72 C10.2809524,7.68 9.39047619,6.8 8.33809524,6.8 L8.33809524,6.8 Z" id="Fill-2"></path>
                    </g>
                </g>
            </g>
        </g>
    </g>
</svg>