<?xml version="1.0" encoding="UTF-8" standalone="no"?>
<svg width="24px" height="16px" viewBox="0 0 24 16" version="1.1" xmlns="http://www.w3.org/2000/svg" xmlns:xlink="http://www.w3.org/1999/xlink" xmlns:sketch="http://www.bohemiancoding.com/sketch/ns">
    <!-- Generator: Sketch 3.4.2 (15857) - http://www.bohemiancoding.com/sketch -->
    <title>Imported Layers Copy</title>
    <desc>Created with Sketch.</desc>
    <defs></defs>
    <g id="Welcome" stroke="none" stroke-width="1" fill="none" fill-rule="evenodd" sketch:type="MSPage">
        <g id="Desktop-HD" sketch:type="MSArtboardGroup" transform="translate(-849.000000, -632.000000)" fill="#444444">
            <g id="Group" sketch:type="MSLayerGroup" transform="translate(247.000000, 616.000000)">
                <g id="Search-Field-Copy-2" transform="translate(585.000000, 0.000000)" sketch:type="MSShapeGroup">
                    <g id="Imported-Layers-Copy" transform="translate(17.000000, 16.000000)">
                        <path d="M18,15.6 L1.36,15.6 C0.96,15.6 0.72,15.36 0.72,14.96 L0.72,6 C0.72,5.6 0.96,5.36 1.36,5.36 L18,5.36 C18.4,5.36 18.64,5.6 18.64,6 L18.64,14.96 C18.64,15.36 18.4,15.6 18,15.6 L18,15.6 Z M2,14.32 L17.36,14.32 L17.36,6.64 L2,6.64 L2,14.32 Z" id="Fill-1"></path>
                        <path d="M3.28,6 L3.28,3.44 C3.28,3.04 3.52,2.8 3.92,2.8 L20.56,2.8 C20.96,2.8 21.2,3.04 21.2,3.44 L21.2,12.4 C21.2,12.8 20.96,13.04 20.56,13.04 L18,13.04 L18,11.76 L19.92,11.76 L19.92,4.08 L4.56,4.08 L4.56,6 L3.28,6" id="Fill-2"></path>
                        <path d="M9.68,13.68 C7.92,13.68 6.48,12.24 6.48,10.48 C6.48,8.72 7.92,7.28 9.68,7.28 C11.44,7.28 12.88,8.72 12.88,10.48 C12.88,12.24 11.52,13.68 9.68,13.68 L9.68,13.68 Z M9.68,8.56 C8.64,8.56 7.76,9.44 7.76,10.48 C7.76,11.52 8.64,12.4 9.68,12.4 C10.72,12.4 11.6,11.52 11.6,10.48 C11.6,9.44 10.72,8.56 9.68,8.56 L9.68,8.56 Z" id="Fill-3"></path>
                        <path d="M5.84,3.44 L5.84,0.88 C5.84,0.48 6.08,0.24 6.48,0.24 L23.12,0.24 C23.52,0.24 23.76,0.48 23.76,0.88 L23.76,9.84 C23.76,10.24 23.52,10.48 23.12,10.48 L20.56,10.48 L20.56,9.2 L22.48,9.2 L22.48,1.52 L7.12,1.52 L7.12,3.44 L5.84,3.44" id="Fill-4"></path>
                    </g>
                </g>
            </g>
        </g>
    </g>
</svg>